<?xml version="1.0" encoding="UTF-8"?>
<!DOCTYPE svg PUBLIC "-//W3C//DTD SVG 1.1//EN" "http://www.w3.org/Graphics/SVG/1.1/DTD/svg11.dtd">
<svg xmlns="http://www.w3.org/2000/svg" version="1.1" width="268px" height="140px" style="shape-rendering:geometricPrecision; text-rendering:geometricPrecision; image-rendering:optimizeQuality; fill-rule:evenodd; clip-rule:evenodd" xmlns:xlink="http://www.w3.org/1999/xlink">
<g><path style="opacity:0.603" fill="#d71e62" d="M 168.5,36.5 C 167.185,37.8946 167.519,38.8946 169.5,39.5C 168.89,40.391 168.557,41.391 168.5,42.5C 168.167,42.5 167.833,42.5 167.5,42.5C 166.391,42.4431 165.391,42.1098 164.5,41.5C 164.414,40.5041 164.748,39.6708 165.5,39C 163.359,38.1163 161.693,38.6163 160.5,40.5C 160.957,41.2975 161.624,41.6309 162.5,41.5C 162.443,42.609 162.11,43.609 161.5,44.5C 160.833,44.5 160.5,44.8333 160.5,45.5C 159.117,48.9427 156.45,50.4427 152.5,50C 152.854,51.6255 152.854,53.4588 152.5,55.5C 153.5,55.5 154.5,55.5 155.5,55.5C 155.5,56.1667 155.833,56.5 156.5,56.5C 157.833,56.5 159.167,56.5 160.5,56.5C 160.5,56.8333 160.5,57.1667 160.5,57.5C 160.725,59.7159 159.892,61.3826 158,62.5C 156.025,62.5117 153.858,62.1784 151.5,61.5C 151.5,61.1667 151.5,60.8333 151.5,60.5C 151.5,58.8333 151.5,57.1667 151.5,55.5C 150.5,55.5 149.5,55.5 148.5,55.5C 147.85,57.4352 147.517,59.4352 147.5,61.5C 147.5,61.8333 147.5,62.1667 147.5,62.5C 146.785,65.9072 146.785,69.2405 147.5,72.5C 147.833,73.8333 148.167,73.8333 148.5,72.5C 149.494,71.0011 149.494,69.3344 148.5,67.5C 149.167,67.5 149.833,67.5 150.5,67.5C 151.167,67.5 151.5,67.1667 151.5,66.5C 152.5,67.8333 153.5,67.8333 154.5,66.5C 154.328,67.4916 154.662,68.1583 155.5,68.5C 154.595,69.7024 154.595,71.0357 155.5,72.5C 154.5,72.5 153.5,72.5 152.5,72.5C 152.383,74.4835 153.05,76.1502 154.5,77.5C 155.429,76.3112 155.762,74.9778 155.5,73.5C 156.167,73.5 156.5,73.1667 156.5,72.5C 157.167,72.5 157.833,72.5 158.5,72.5C 158.62,73.5862 159.287,74.2528 160.5,74.5C 161.815,75.154 162.815,75.154 163.5,74.5C 164.167,74.5 164.833,74.5 165.5,74.5C 165.821,76.0481 166.821,76.7148 168.5,76.5C 169.348,78.0931 170.681,79.2597 172.5,80C 169.641,81.835 167.141,81.335 165,78.5C 164.601,78.7284 164.435,79.0618 164.5,79.5C 163.833,79.5 163.167,79.5 162.5,79.5C 162.167,78.1667 161.833,78.1667 161.5,79.5C 161.5,80.5 161.5,81.5 161.5,82.5C 158.583,81.7089 155.75,81.7089 153,82.5C 151.59,80.1165 149.59,78.4498 147,77.5C 145.312,73.5248 143.812,69.5248 142.5,65.5C 142.685,64.4163 143.018,63.4163 143.5,62.5C 143.833,62.5 144.167,62.5 144.5,62.5C 145.167,62.5 145.5,62.1667 145.5,61.5C 145.923,59.2188 145.256,57.5521 143.5,56.5C 144.036,53.4453 144.869,50.4453 146,47.5C 147.067,46.8095 148.234,46.3095 149.5,46C 148.262,45.31 148.262,44.81 149.5,44.5C 151.988,45.4122 153.655,44.4122 154.5,41.5C 154.414,40.5041 154.748,39.6708 155.5,39C 159.676,36.1837 164.01,35.3503 168.5,36.5 Z"/></g>
<g><path style="opacity:0.516" fill="#fde90d" d="M 168.5,36.5 C 168.833,36.5 169.167,36.5 169.5,36.5C 170.5,36.8333 171.167,37.5 171.5,38.5C 170.833,38.5 170.5,38.8333 170.5,39.5C 170.167,39.5 169.833,39.5 169.5,39.5C 167.519,38.8946 167.185,37.8946 168.5,36.5 Z"/></g>
<g><path style="opacity:0.497" fill="#d7215c" d="M 169.5,36.5 C 169.917,35.8761 170.584,35.5427 171.5,35.5C 174.759,37.9 178.426,39.2333 182.5,39.5C 181.948,41.3307 181.948,42.9974 182.5,44.5C 182.145,45.5223 181.478,46.189 180.5,46.5C 179.449,45.7777 178.782,44.7777 178.5,43.5C 179.833,42.8333 179.833,42.1667 178.5,41.5C 177.391,41.4431 176.391,41.1098 175.5,40.5C 175.158,39.6618 174.492,39.3284 173.5,39.5C 172.833,39.5 172.167,39.5 171.5,39.5C 171.5,39.1667 171.5,38.8333 171.5,38.5C 171.167,37.5 170.5,36.8333 169.5,36.5 Z"/></g>
<g><path style="opacity:0.928" fill="#3798d2" d="M 164.5,41.5 C 163.833,41.5 163.167,41.5 162.5,41.5C 161.624,41.6309 160.957,41.2975 160.5,40.5C 161.693,38.6163 163.359,38.1163 165.5,39C 164.748,39.6708 164.414,40.5041 164.5,41.5 Z"/></g>
<g><path style="opacity:0.715" fill="#f69220" d="M 169.5,39.5 C 169.833,39.5 170.167,39.5 170.5,39.5C 170.833,39.5 171.167,39.5 171.5,39.5C 172.167,39.5 172.833,39.5 173.5,39.5C 173.5,40.5 173.5,41.5 173.5,42.5C 172.5,42.5 171.5,42.5 170.5,42.5C 169.833,42.5 169.167,42.5 168.5,42.5C 168.557,41.391 168.89,40.391 169.5,39.5 Z"/></g>
<g><path style="opacity:0.69" fill="#8dc43e" d="M 162.5,41.5 C 163.167,41.5 163.833,41.5 164.5,41.5C 165.391,42.1098 166.391,42.4431 167.5,42.5C 167.5,42.8333 167.5,43.1667 167.5,43.5C 166.662,43.8417 166.328,44.5084 166.5,45.5C 166.167,45.5 165.833,45.5 165.5,45.5C 164.167,45.5 162.833,45.5 161.5,45.5C 161.5,45.1667 161.5,44.8333 161.5,44.5C 162.11,43.609 162.443,42.609 162.5,41.5 Z"/></g>
<g><path style="opacity:0.748" fill="#5d9f5d" d="M 175.5,40.5 C 176.391,41.1098 177.391,41.4431 178.5,41.5C 178.5,42.1667 178.5,42.8333 178.5,43.5C 177.833,43.8333 177.167,44.1667 176.5,44.5C 175.833,44.5 175.167,44.5 174.5,44.5C 174.167,43.8333 173.833,43.1667 173.5,42.5C 174.167,41.8333 174.833,41.1667 175.5,40.5 Z"/></g>
<g><path style="opacity:0.87" fill="#d81c5c" d="M 15.5,43.5 C 19.8461,43.3343 24.1794,43.501 28.5,44C 36.0387,46.9399 36.372,50.4399 29.5,54.5C 21.1682,48.5005 15.5016,50.5005 12.5,60.5C 16.0637,70.1786 21.897,71.8453 30,65.5C 36.3009,69.9373 35.8009,73.4373 28.5,76C 17.5096,79.4194 9.67625,75.9194 5,65.5C 2.96676,55.4059 6.46676,48.0726 15.5,43.5 Z"/></g>
<g><path style="opacity:0.858" fill="#d91b5c" d="M 40.5,43.5 C 43.1667,43.5 45.8333,43.5 48.5,43.5C 48.5,52.1667 48.5,60.8333 48.5,69.5C 53.8333,69.5 59.1667,69.5 64.5,69.5C 64.5,71.8333 64.5,74.1667 64.5,76.5C 56.5,76.5 48.5,76.5 40.5,76.5C 40.5,65.5 40.5,54.5 40.5,43.5 Z"/></g>
<g><path style="opacity:0.846" fill="#d91b5b" d="M 70.5,43.5 C 73.1667,43.5 75.8333,43.5 78.5,43.5C 78.5,54.5 78.5,65.5 78.5,76.5C 75.8333,76.5 73.1667,76.5 70.5,76.5C 70.5,65.5 70.5,54.5 70.5,43.5 Z"/></g>
<g><path style="opacity:0.844" fill="#d81b5c" d="M 84.5,43.5 C 92.8333,43.5 101.167,43.5 109.5,43.5C 109.5,46.1667 109.5,48.8333 109.5,51.5C 103.833,51.5 98.1667,51.5 92.5,51.5C 92.5,53.1667 92.5,54.8333 92.5,56.5C 97.5,56.5 102.5,56.5 107.5,56.5C 107.5,59.1667 107.5,61.8333 107.5,64.5C 102.5,64.5 97.5,64.5 92.5,64.5C 92.5,68.5 92.5,72.5 92.5,76.5C 89.8333,76.5 87.1667,76.5 84.5,76.5C 84.5,65.5 84.5,54.5 84.5,43.5 Z"/></g>
<g><path style="opacity:0.836" fill="#d81b5c" d="M 115.5,43.5 C 124.5,43.5 133.5,43.5 142.5,43.5C 142.5,46.1667 142.5,48.8333 142.5,51.5C 139.167,51.5 135.833,51.5 132.5,51.5C 132.5,59.8333 132.5,68.1667 132.5,76.5C 129.833,76.5 127.167,76.5 124.5,76.5C 124.5,68.1667 124.5,59.8333 124.5,51.5C 121.5,51.5 118.5,51.5 115.5,51.5C 115.5,48.8333 115.5,46.1667 115.5,43.5 Z"/></g>
<g><path style="opacity:0.843" fill="#654499" d="M 154.5,41.5 C 153.655,44.4122 151.988,45.4122 149.5,44.5C 150.401,42.2729 152.067,41.2729 154.5,41.5 Z"/></g>
<g><path style="opacity:0.876" fill="#d81b5c" d="M 191.5,43.5 C 194.187,43.3359 196.854,43.5026 199.5,44C 203.667,49.5 207.833,55 212,60.5C 212.499,54.8431 212.666,49.1764 212.5,43.5C 215.167,43.5 217.833,43.5 220.5,43.5C 220.5,54.5 220.5,65.5 220.5,76.5C 218.143,76.6633 215.81,76.4966 213.5,76C 209.333,70.5 205.167,65 201,59.5C 200.501,65.1569 200.334,70.8236 200.5,76.5C 197.5,76.5 194.5,76.5 191.5,76.5C 191.5,65.5 191.5,54.5 191.5,43.5 Z"/></g>
<g><path style="opacity:0.868" fill="#d81c5c" d="M 234.5,43.5 C 241.13,42.3735 246.797,44.0402 251.5,48.5C 249.808,50.3586 248.308,52.3586 247,54.5C 244.737,52.4091 242.07,51.0758 239,50.5C 236.03,51.022 235.196,52.522 236.5,55C 241.994,55.8259 246.828,57.9926 251,61.5C 253.919,69.3615 251.419,74.5282 243.5,77C 239.789,77.4389 236.122,77.1056 232.5,76C 225.207,73.6373 224.707,70.4707 231,66.5C 233.82,68.0788 236.82,69.0788 240,69.5C 245.095,69.1682 245.595,67.6682 241.5,65C 237.757,63.8635 234.09,62.5302 230.5,61C 227.106,56.8952 226.606,52.3952 229,47.5C 230.812,46.0229 232.645,44.6896 234.5,43.5 Z"/></g>
<g><path style="opacity:0.593" fill="#d81c5c" d="M 168.5,42.5 C 169.167,42.5 169.833,42.5 170.5,42.5C 171.514,43.6737 172.847,44.3404 174.5,44.5C 175.167,44.5 175.833,44.5 176.5,44.5C 176.773,46.451 176.107,47.951 174.5,49C 175.126,49.7504 175.626,50.5838 176,51.5C 176.671,50.7476 177.504,50.4142 178.5,50.5C 181.228,52.6175 180.894,54.2842 177.5,55.5C 176.489,52.7698 174.822,52.1032 172.5,53.5C 171.833,53.5 171.167,53.5 170.5,53.5C 170.672,52.5084 170.338,51.8417 169.5,51.5C 170.11,50.609 170.443,49.609 170.5,48.5C 171.376,48.6309 172.043,48.2975 172.5,47.5C 171.311,46.5713 169.978,46.238 168.5,46.5C 167.833,46.5 167.167,46.5 166.5,46.5C 166.5,46.1667 166.5,45.8333 166.5,45.5C 166.328,44.5084 166.662,43.8417 167.5,43.5C 168.167,43.5 168.5,43.1667 168.5,42.5 Z"/></g>
<g><path style="opacity:0.675" fill="#e0c841" d="M 186.5,47.5 C 185.833,47.5 185.167,47.5 184.5,47.5C 183.224,46.6136 183.224,45.6136 184.5,44.5C 185.919,45.0047 186.585,46.0047 186.5,47.5 Z"/></g>
<g><path style="opacity:0.958" fill="#209ed8" d="M 166.5,46.5 C 167.167,46.5 167.833,46.5 168.5,46.5C 169.167,47.1667 169.833,47.8333 170.5,48.5C 170.443,49.609 170.11,50.609 169.5,51.5C 168.833,51.5 168.5,51.8333 168.5,52.5C 167.167,52.1667 165.833,51.8333 164.5,51.5C 164.5,51.1667 164.5,50.8333 164.5,50.5C 164.5,49.5 164.5,48.5 164.5,47.5C 165.492,47.6716 166.158,47.3382 166.5,46.5 Z"/></g>
<g><path style="opacity:0.66" fill="#eb5934" d="M 180.5,46.5 C 182.002,48.8293 181.336,50.1627 178.5,50.5C 177.766,49.2921 177.433,47.9587 177.5,46.5C 178.5,46.5 179.5,46.5 180.5,46.5 Z"/></g>
<g><path style="opacity:0.479" fill="#d2255f" d="M 184.5,47.5 C 185.167,47.5 185.833,47.5 186.5,47.5C 185.402,48.397 185.402,49.2303 186.5,50C 185.437,51.1882 184.103,51.6882 182.5,51.5C 182.527,49.8007 183.194,48.4674 184.5,47.5 Z"/></g>
<g><path style="opacity:0.799" fill="#3c6cb2" d="M 148.5,55.5 C 147.448,55.6495 146.448,55.4828 145.5,55C 146.38,53.6439 146.714,52.1439 146.5,50.5C 147.5,50.5 148.5,50.5 149.5,50.5C 149.371,52.2161 149.038,53.8828 148.5,55.5 Z"/></g>
<g><path style="opacity:0.73" fill="#8bc145" d="M 168.5,53.5 C 169.167,53.5 169.833,53.5 170.5,53.5C 171.167,53.5 171.833,53.5 172.5,53.5C 173.11,54.391 173.443,55.391 173.5,56.5C 173.167,57.1667 172.833,57.8333 172.5,58.5C 170.517,58.8432 169.183,58.1765 168.5,56.5C 168.5,55.5 168.5,54.5 168.5,53.5 Z"/></g>
<g><path style="opacity:0.572" fill="#f9ec12" d="M 181.5,53.5 C 185.541,53.5017 186.208,54.835 183.5,57.5C 181.889,56.6798 181.222,55.3464 181.5,53.5 Z"/></g>
<g><path style="opacity:0.917" fill="#95298a" d="M 148.5,55.5 C 149.5,55.5 150.5,55.5 151.5,55.5C 151.5,57.1667 151.5,58.8333 151.5,60.5C 150.833,60.5 150.5,60.8333 150.5,61.5C 149.5,61.5 148.5,61.5 147.5,61.5C 147.517,59.4352 147.85,57.4352 148.5,55.5 Z"/></g>
<g><path style="opacity:0.418" fill="#d71c5c" d="M 186.5,55.5 C 188.048,55.8212 188.715,56.8212 188.5,58.5C 185.752,58.5983 185.086,57.5983 186.5,55.5 Z"/></g>
<g><path style="opacity:0.712" fill="#418e50" d="M 143.5,56.5 C 145.256,57.5521 145.923,59.2188 145.5,61.5C 144.833,61.5 144.5,61.8333 144.5,62.5C 144.167,62.5 143.833,62.5 143.5,62.5C 141.323,60.3919 141.323,58.3919 143.5,56.5 Z"/></g>
<g><path style="opacity:0.588" fill="#d6205d" d="M 177.5,55.5 C 178.301,57.0418 178.634,58.7085 178.5,60.5C 176.142,60.7475 174.142,60.0808 172.5,58.5C 172.833,57.8333 173.167,57.1667 173.5,56.5C 174.708,55.7659 176.041,55.4326 177.5,55.5 Z"/></g>
<g><path style="opacity:0.684" fill="#dc2456" d="M 160.5,45.5 C 160.833,45.5 161.167,45.5 161.5,45.5C 162.833,45.5 164.167,45.5 165.5,45.5C 165.167,46.1667 164.833,46.8333 164.5,47.5C 164.5,48.5 164.5,49.5 164.5,50.5C 163.624,50.3691 162.957,50.7025 162.5,51.5C 162.97,52.463 163.637,52.463 164.5,51.5C 165.833,51.8333 167.167,52.1667 168.5,52.5C 168.5,52.8333 168.5,53.1667 168.5,53.5C 168.5,54.5 168.5,55.5 168.5,56.5C 167.527,56.9867 166.527,57.4867 165.5,58C 167.25,59.3186 169.25,59.8186 171.5,59.5C 171.5,60.5 171.5,61.5 171.5,62.5C 171.5,62.8333 171.5,63.1667 171.5,63.5C 170.609,64.1098 169.609,64.4431 168.5,64.5C 167.833,64.5 167.167,64.5 166.5,64.5C 166.289,62.5759 165.623,62.2426 164.5,63.5C 163.5,63.5 162.5,63.5 161.5,63.5C 160.151,62.3559 159.817,62.3559 160.5,63.5C 159.766,64.7079 159.433,66.0413 159.5,67.5C 158.833,67.5 158.5,67.8333 158.5,68.5C 157.609,67.8902 156.609,67.5569 155.5,67.5C 155.5,66.8333 155.167,66.5 154.5,66.5C 153.5,67.8333 152.5,67.8333 151.5,66.5C 150.699,64.9582 150.366,63.2915 150.5,61.5C 150.833,61.5 151.167,61.5 151.5,61.5C 153.858,62.1784 156.025,62.5117 158,62.5C 159.892,61.3826 160.725,59.7159 160.5,57.5C 161.376,57.6309 162.043,57.2975 162.5,56.5C 162.03,55.537 161.363,55.537 160.5,56.5C 159.167,56.5 157.833,56.5 156.5,56.5C 155.833,56.5 155.5,56.1667 155.5,55.5C 154.5,55.5 153.5,55.5 152.5,55.5C 152.854,53.4588 152.854,51.6255 152.5,50C 156.45,50.4427 159.117,48.9427 160.5,45.5 Z"/></g>
<g><path style="opacity:0.629" fill="#d81c5c" d="M 179.5,58.5 C 180.833,58.5 182.167,58.5 183.5,58.5C 183.5,59.8333 183.5,61.1667 183.5,62.5C 182.167,62.5 180.833,62.5 179.5,62.5C 179.5,61.1667 179.5,59.8333 179.5,58.5 Z"/></g>
<g><path style="opacity:0.939" fill="#229dd8" d="M 147.5,62.5 C 147.5,62.1667 147.5,61.8333 147.5,61.5C 148.5,61.5 149.5,61.5 150.5,61.5C 150.366,63.2915 150.699,64.9582 151.5,66.5C 150.833,66.5 150.5,66.8333 150.5,67.5C 149.833,67.5 149.167,67.5 148.5,67.5C 148.784,65.5853 148.451,63.9187 147.5,62.5 Z"/></g>
<g><path style="opacity:0.793" fill="#ee942f" d="M 176.5,64.5 C 176.5,64.8333 176.5,65.1667 176.5,65.5C 175.5,66.1667 174.5,66.8333 173.5,67.5C 172.4,66.3951 171.733,65.0618 171.5,63.5C 171.5,63.1667 171.5,62.8333 171.5,62.5C 173.042,61.6993 174.708,61.366 176.5,61.5C 176.5,62.5 176.5,63.5 176.5,64.5 Z"/></g>
<g><path style="opacity:0.424" fill="#d81b5c" d="M 184.5,61.5 C 185.5,61.5 186.5,61.5 187.5,61.5C 187.5,62.5 187.5,63.5 187.5,64.5C 186.5,64.5 185.5,64.5 184.5,64.5C 184.5,63.5 184.5,62.5 184.5,61.5 Z"/></g>
<g><path style="opacity:0.832" fill="#f9b03b" d="M 160.5,63.5 C 160.833,63.5 161.167,63.5 161.5,63.5C 162.5,63.5 163.5,63.5 164.5,63.5C 164.5,64.1667 164.5,64.8333 164.5,65.5C 164.5,66.5 164.5,67.5 164.5,68.5C 163.833,68.5 163.167,68.5 162.5,68.5C 161.833,68.5 161.167,68.5 160.5,68.5C 160.5,67.8333 160.167,67.5 159.5,67.5C 159.433,66.0413 159.766,64.7079 160.5,63.5 Z"/></g>
<g><path style="opacity:0.574" fill="#d5205d" d="M 176.5,65.5 C 176.5,65.1667 176.5,64.8333 176.5,64.5C 177.708,63.7659 179.041,63.4326 180.5,63.5C 180.5,64.8333 180.5,66.1667 180.5,67.5C 178.517,67.8432 177.183,67.1765 176.5,65.5 Z"/></g>
<g><path style="opacity:0.779" fill="#289ada" d="M 166.5,64.5 C 167.167,64.5 167.833,64.5 168.5,64.5C 169.11,65.391 169.443,66.391 169.5,67.5C 169.5,67.8333 169.5,68.1667 169.5,68.5C 168.094,68.9731 167.427,69.9731 167.5,71.5C 166.833,71.1667 166.167,70.8333 165.5,70.5C 165.167,69.8333 164.833,69.1667 164.5,68.5C 164.5,67.5 164.5,66.5 164.5,65.5C 165.167,65.1667 165.833,64.8333 166.5,64.5 Z"/></g>
<g><path style="opacity:0.682" fill="#594091" d="M 147.5,62.5 C 148.451,63.9187 148.784,65.5853 148.5,67.5C 149.494,69.3344 149.494,71.0011 148.5,72.5C 148.167,72.5 147.833,72.5 147.5,72.5C 146.785,69.2405 146.785,65.9072 147.5,62.5 Z"/></g>
<g><path style="opacity:0.635" fill="#d81b5c" d="M 169.5,67.5 C 170.833,67.5 172.167,67.5 173.5,67.5C 173.912,69.9726 172.912,71.3059 170.5,71.5C 169.89,70.609 169.557,69.609 169.5,68.5C 169.5,68.1667 169.5,67.8333 169.5,67.5 Z"/></g>
<g><path style="opacity:0.927" fill="#94298a" d="M 155.5,67.5 C 156.609,67.5569 157.609,67.8902 158.5,68.5C 158.5,69.8333 158.5,71.1667 158.5,72.5C 157.833,72.5 157.167,72.5 156.5,72.5C 156.167,72.5 155.833,72.5 155.5,72.5C 154.595,71.0357 154.595,69.7024 155.5,68.5C 155.5,68.1667 155.5,67.8333 155.5,67.5 Z"/></g>
<g><path style="opacity:0.556" fill="#d71d5c" d="M 158.5,68.5 C 159.167,68.5 159.833,68.5 160.5,68.5C 161.167,68.5 161.833,68.5 162.5,68.5C 162.833,69.1667 163.167,69.8333 163.5,70.5C 163.5,71.5 163.5,72.5 163.5,73.5C 161.708,73.634 160.042,73.3007 158.5,72.5C 158.5,71.1667 158.5,69.8333 158.5,68.5 Z"/></g>
<g><path style="opacity:0.231" fill="#f1e537" d="M 182.5,66.5 C 184.048,66.8212 184.715,67.8212 184.5,69.5C 181.752,69.5983 181.086,68.5983 182.5,66.5 Z"/></g>
<g><path style="opacity:0.513" fill="#d5225e" d="M 174.5,69.5 C 176.929,69.8844 179.263,70.551 181.5,71.5C 181.5,72.5 181.5,73.5 181.5,74.5C 179.876,74.6399 178.71,73.9733 178,72.5C 175.342,73.694 174.176,72.694 174.5,69.5 Z"/></g>
<g><path style="opacity:0.596" fill="#92c43e" d="M 163.5,70.5 C 164.167,70.5 164.833,70.5 165.5,70.5C 166.167,70.8333 166.833,71.1667 167.5,71.5C 167.5,71.8333 167.5,72.1667 167.5,72.5C 167.5,73.1667 167.5,73.8333 167.5,74.5C 166.833,74.5 166.167,74.5 165.5,74.5C 164.833,74.5 164.167,74.5 163.5,74.5C 163.5,74.1667 163.5,73.8333 163.5,73.5C 163.5,72.5 163.5,71.5 163.5,70.5 Z"/></g>
<g><path style="opacity:0.496" fill="#d4235e" d="M 170.5,71.5 C 171.234,72.7079 171.567,74.0413 171.5,75.5C 170.609,76.1098 169.609,76.4431 168.5,76.5C 168.167,75.8333 167.833,75.1667 167.5,74.5C 167.5,73.8333 167.5,73.1667 167.5,72.5C 168.391,71.8902 169.391,71.5569 170.5,71.5 Z"/></g>
<g><path style="opacity:0.634" fill="#0b9cde" d="M 155.5,72.5 C 155.5,72.8333 155.5,73.1667 155.5,73.5C 155.762,74.9778 155.429,76.3112 154.5,77.5C 153.05,76.1502 152.383,74.4835 152.5,72.5C 153.5,72.5 154.5,72.5 155.5,72.5 Z"/></g>
<g><path style="opacity:0.21" fill="#f6da2e" d="M 171.5,75.5 C 172.708,74.7659 174.041,74.4326 175.5,74.5C 175.5,75.5 175.5,76.5 175.5,77.5C 173.62,77.7709 172.287,77.1042 171.5,75.5 Z"/></g>
<g><path style="opacity:0.62" fill="#ea8a3d" d="M 161.5,79.5 C 161.833,79.5 162.167,79.5 162.5,79.5C 163.167,79.5 163.833,79.5 164.5,79.5C 164.5,80.8333 164.5,82.1667 164.5,83.5C 163.209,83.7373 162.209,83.404 161.5,82.5C 161.5,81.5 161.5,80.5 161.5,79.5 Z"/></g>
<g><path style="opacity:0.593" fill="#2275ba" d="M 72.5,85.5 C 75.4822,85.1044 78.1489,85.7711 80.5,87.5C 78.9991,89.9572 77.3324,89.9572 75.5,87.5C 74.5,87.8333 73.8333,88.5 73.5,89.5C 75.4899,90.8732 77.6566,91.8732 80,92.5C 80.4955,94.4727 80.6621,96.4727 80.5,98.5C 77.1667,99.8333 73.8333,99.8333 70.5,98.5C 70.3118,96.8967 70.8118,95.5634 72,94.5C 73.5553,96.5152 75.3886,96.8485 77.5,95.5C 75.4344,94.0937 73.2677,92.7604 71,91.5C 70.2516,89.1599 70.7516,87.1599 72.5,85.5 Z"/></g>
<g><path style="opacity:0.622" fill="#0f75bb" d="M 84.5,85.5 C 88.1667,85.5 91.8333,85.5 95.5,85.5C 95.5,86.5 95.5,87.5 95.5,88.5C 94.1667,88.5 92.8333,88.5 91.5,88.5C 91.5,91.8333 91.5,95.1667 91.5,98.5C 90.5,98.5 89.5,98.5 88.5,98.5C 88.5,95.1667 88.5,91.8333 88.5,88.5C 87.1667,88.5 85.8333,88.5 84.5,88.5C 84.5,87.5 84.5,86.5 84.5,85.5 Z"/></g>
<g><path style="opacity:0.526" fill="#1075bc" d="M 99.5,85.5 C 100.5,85.5 101.5,85.5 102.5,85.5C 102.335,88.8499 102.502,92.1832 103,95.5C 104.667,96.8333 106.333,96.8333 108,95.5C 108.498,92.1832 108.665,88.8499 108.5,85.5C 109.5,85.5 110.5,85.5 111.5,85.5C 111.854,89.6372 111.354,93.6372 110,97.5C 107.061,99.8127 103.895,100.146 100.5,98.5C 99.7051,94.2147 99.3718,89.8814 99.5,85.5 Z"/></g>
<g><path style="opacity:0.63" fill="#0f76bd" d="M 116.5,85.5 C 123.088,83.8009 127.088,86.1342 128.5,92.5C 128.594,94.9116 127.594,96.745 125.5,98C 122.518,98.498 119.518,98.6646 116.5,98.5C 116.5,94.1667 116.5,89.8333 116.5,85.5 Z M 119.5,88.5 C 125.488,88.664 126.821,91.164 123.5,96C 122.207,96.49 120.873,96.6567 119.5,96.5C 119.5,93.8333 119.5,91.1667 119.5,88.5 Z"/></g>
<g><path style="opacity:0.558" fill="#1d75bb" d="M 132.5,85.5 C 133.675,85.281 134.675,85.6143 135.5,86.5C 137.423,91.5217 139.423,91.3551 141.5,86C 142.635,85.2506 143.635,85.4173 144.5,86.5C 143.197,88.9676 141.697,91.301 140,93.5C 139.506,95.1341 139.34,96.8008 139.5,98.5C 138.5,98.5 137.5,98.5 136.5,98.5C 136.662,96.4727 136.495,94.4727 136,92.5C 133.762,90.6909 132.595,88.3576 132.5,85.5 Z"/></g>
<g><path style="opacity:0.626" fill="#2d74b8" d="M 160.5,85.5 C 161.833,85.5 163.167,85.5 164.5,85.5C 165.741,89.8188 167.408,93.9855 169.5,98C 166.55,96.5332 163.217,95.6998 159.5,95.5C 159.5,96.5 159.5,97.5 159.5,98.5C 158.127,98.6567 156.793,98.49 155.5,98C 157.592,93.9855 159.259,89.8188 160.5,85.5 Z M 161.5,90.5 C 164.962,92.1927 164.962,93.1927 161.5,93.5C 161.5,92.5 161.5,91.5 161.5,90.5 Z"/></g>
<g><path style="opacity:0.593" fill="#1875bb" d="M 173.5,85.5 C 176.518,85.3354 179.518,85.502 182.5,86C 183,86.5 183.5,87 184,87.5C 183.896,91.0048 184.063,94.6715 184.5,98.5C 180.833,98.5 177.167,98.5 173.5,98.5C 173.5,94.1667 173.5,89.8333 173.5,85.5 Z M 176.5,87.5 C 183.085,88.9848 183.085,90.3182 176.5,91.5C 176.5,90.1667 176.5,88.8333 176.5,87.5 Z M 176.5,93.5 C 184.422,94.576 184.422,95.576 176.5,96.5C 176.5,95.5 176.5,94.5 176.5,93.5 Z"/></g>
<g><path style="opacity:0.564" fill="#1875bb" d="M 189.5,85.5 C 192.518,85.3354 195.518,85.502 198.5,86C 201.113,88.7953 201.113,91.6286 198.5,94.5C 199.167,95.5 199.833,96.5 200.5,97.5C 199.833,97.8333 199.167,98.1667 198.5,98.5C 196.874,96.5476 194.874,95.2143 192.5,94.5C 192.5,95.8333 192.5,97.1667 192.5,98.5C 191.5,98.5 190.5,98.5 189.5,98.5C 189.5,94.1667 189.5,89.8333 189.5,85.5 Z M 192.5,88.5 C 194.167,88.5 195.833,88.5 197.5,88.5C 197.5,89.5 197.5,90.5 197.5,91.5C 195.833,91.5 194.167,91.5 192.5,91.5C 192.5,90.5 192.5,89.5 192.5,88.5 Z"/></g>
<g><path style="opacity:0.619" fill="#2575ba" d="M 208.5,85.5 C 217.818,85.2917 220.484,89.4584 216.5,98C 208.334,100.822 204.501,97.989 205,89.5C 206.102,88.051 207.269,86.7177 208.5,85.5 Z M 210.5,87.5 C 214.516,88.1951 216.016,90.5284 215,94.5C 211.253,97.6028 208.753,96.7695 207.5,92C 208.315,90.3566 209.315,88.8566 210.5,87.5 Z"/></g>
<g><path style="opacity:0.621" fill="#1075bc" d="M 227.5,85.5 C 228.822,85.33 229.989,85.6634 231,86.5C 232.798,90.422 234.298,94.422 235.5,98.5C 234.5,98.5 233.5,98.5 232.5,98.5C 232.5,97.5 232.5,96.5 232.5,95.5C 228.995,94.8755 226.162,95.8755 224,98.5C 223.5,98.1667 223,97.8333 222.5,97.5C 224.179,93.4787 225.846,89.4787 227.5,85.5 Z M 228.5,89.5 C 231.459,92.2714 231.126,93.2714 227.5,92.5C 228.127,91.5832 228.461,90.5832 228.5,89.5 Z"/></g>
<g><path style="opacity:0.655" fill="#1076bc" d="M 240.5,85.5 C 246.775,84.2939 250.775,86.6272 252.5,92.5C 252.152,94.6967 251.152,96.53 249.5,98C 246.518,98.498 243.518,98.6646 240.5,98.5C 240.5,94.1667 240.5,89.8333 240.5,85.5 Z M 243.5,88.5 C 249.488,88.664 250.821,91.164 247.5,96C 246.207,96.49 244.873,96.6567 243.5,96.5C 243.5,93.8333 243.5,91.1667 243.5,88.5 Z"/></g>
</svg>
